<?xml version="1.0" encoding="UTF-8"?>
<svg viewBox="0 0 72 72" xmlns="http://www.w3.org/2000/svg">
<rect x="5" y="17" width="62" height="38" fill="#d22f27"/>
<circle cx="24" cy="34" r="1.75" fill="#f1b31c"/>
<circle cx="24" cy="24" r="1.75" fill="#f1b31c"/>
<circle cx="28" cy="31" r="1.75" fill="#f1b31c"/>
<circle cx="28" cy="26" r="1.75" fill="#f1b31c"/>
<polygon points="13.528 32.445 16 24.445 18.473 32.445 12 27.5 20 27.5" fill="#f1b31c" stroke="#f1b31c" stroke-linecap="round" stroke-linejoin="round"/>
<rect x="5" y="17" width="62" height="38" fill="none" stroke="#000" stroke-linecap="round" stroke-linejoin="round" stroke-width="2"/>
<path d="m48.429 46.082c0 0.683 0.391 1.391 1.099 2.063 1.135 1.074 3.174 1.733 5.469 1.733 4.175 0 6.848-2.112 6.848-5.395 0-2.527-1.502-4.053-4.602-4.676l-2.32-0.5c-1.55-0.305-2.258-0.952-2.258-1.868 0-1.05 0.928-1.721 2.405-1.721 1.257 0 2.246 0.488 3.101 1.428 0.512 0.489 1.037 0.72 1.562 0.72 0.94 0 1.575-0.61 1.575-1.501 0-0.745-0.379-1.477-1.099-2.136-1.123-1.062-3.052-1.685-5.188-1.685-3.906 0-6.396 2.027-6.396 5.225 0 2.551 1.477 4.101 4.48 4.736l2.295 0.525c1.757 0.378 2.49 0.952 2.49 1.88 0 1.147-0.94 1.782-2.686 1.782-1.233 0-2.441-0.513-3.442-1.452-0.672-0.599-1.172-0.818-1.758-0.818-0.867 0-1.575 0.683-1.575 1.66z" fill="#fff"/>
</svg>
